<?xml version="1.0" encoding="UTF-8" standalone="no"?>
<!DOCTYPE svg PUBLIC "-//W3C//DTD SVG 20010904//EN"
              "http://www.w3.org/TR/2001/REC-SVG-20010904/DTD/svg10.dtd">

<svg xmlns="http://www.w3.org/2000/svg"
     width="8.33333in" height="8.33333in"
     viewBox="0 0 600 600">
  <path id="Fellows network"
        fill="white" stroke="none" stroke-width="0"
        d="M 367.00,341.27
           C 369.01,341.39 371.23,342.04 372.96,343.09
             381.05,347.99 379.45,361.68 368.00,362.89
             354.02,364.38 354.38,353.63 340.00,354.78
             340.00,354.78 328.00,357.61 328.00,357.61
             324.56,357.69 321.93,355.69 316.00,356.10
             316.00,356.10 305.00,358.49 305.00,358.49
             301.33,358.67 298.85,356.72 294.00,357.20
             289.69,357.62 286.79,359.75 284.00,360.19
             281.19,360.62 277.98,359.32 275.00,359.01
             269.55,358.44 265.63,359.55 261.01,362.47
             250.93,368.83 246.49,381.59 249.79,393.00
             252.05,400.82 257.47,402.38 255.26,407.00
             252.76,412.21 240.18,420.81 235.00,424.05
             209.55,439.99 188.01,441.34 159.00,441.00
             153.85,440.94 148.11,439.93 143.00,439.08
             97.27,431.51 61.88,397.15 47.08,354.00
             38.76,329.74 38.71,310.10 39.00,285.00
             39.00,285.00 40.92,268.00 40.92,268.00
             47.09,230.68 67.17,192.44 100.00,172.06
             114.39,163.13 133.22,157.35 150.00,155.06
             150.00,155.06 158.00,155.06 158.00,155.06
             158.00,155.06 167.00,154.00 167.00,154.00
             187.30,153.77 208.04,158.30 226.00,167.78
             243.59,177.07 263.36,195.23 274.00,212.00
             255.15,216.43 249.78,238.01 249.00,254.84
             244.97,254.81 241.01,253.81 237.00,254.84
             232.05,255.76 229.44,258.26 226.00,256.87
             223.47,255.86 219.11,251.07 217.00,249.01
             212.87,244.98 206.70,239.80 202.00,236.43
             186.36,225.20 173.90,221.83 155.00,223.95
             146.34,224.92 137.56,226.97 130.00,231.45
             89.98,255.18 84.09,321.94 117.09,353.83
             128.04,364.41 144.66,371.82 160.00,372.00
             160.00,372.00 172.00,372.00 172.00,372.00
             180.77,371.89 201.01,367.10 206.30,359.90
             210.31,354.44 209.05,349.82 209.37,344.00
             209.37,344.00 210.03,336.00 210.03,336.00
             210.72,323.52 212.85,311.19 215.58,299.00
             218.49,286.00 223.40,270.43 237.00,265.12
             240.73,263.66 243.09,263.22 247.00,264.00
             244.26,274.33 238.04,299.33 241.05,309.00
             246.08,325.16 266.25,332.07 278.90,319.82
             286.25,312.69 288.37,297.74 291.34,288.00
             293.61,280.57 294.63,275.26 303.00,272.79
             303.00,272.79 347.00,268.91 347.00,268.91
             354.19,268.42 366.29,266.36 373.00,267.11
             383.24,268.25 386.35,281.45 377.82,286.70
             372.29,290.10 361.00,287.98 350.00,292.21
             350.00,292.21 377.00,292.21 377.00,292.21
             382.01,293.81 385.42,298.82 384.62,304.00
             383.72,309.83 379.32,312.35 374.00,313.38
             365.72,314.99 355.89,313.35 348.00,317.00
             352.90,317.00 371.57,316.53 374.96,317.65
             379.71,319.21 382.50,324.10 381.76,329.00
             380.77,335.55 375.77,337.50 370.00,338.07
             362.22,338.85 353.05,338.71 346.00,342.00
             346.00,342.00 367.00,341.27 367.00,341.27 Z
           M 409.00,369.94
           C 425.02,376.01 447.13,373.30 462.00,365.10
             470.16,360.60 476.98,353.57 482.28,346.00
             503.50,315.69 502.35,269.97 475.96,243.01
             462.59,229.35 443.77,223.79 425.00,224.00
             415.11,224.12 396.94,227.65 389.04,233.63
             382.50,238.60 381.57,247.89 370.00,251.07
             370.00,251.07 349.00,253.09 349.00,253.09
             349.00,253.09 317.00,255.96 317.00,255.96
             309.29,256.31 296.89,256.06 291.04,261.22
             289.16,262.88 287.67,264.74 286.57,267.00
             286.57,267.00 278.65,299.00 278.65,299.00
             277.32,304.86 276.98,310.02 271.82,314.01
             263.55,320.39 248.41,317.13 249.04,301.00
             249.04,301.00 253.00,279.00 253.00,279.00
             253.00,279.00 260.00,243.00 260.00,243.00
             261.63,235.15 262.58,226.64 270.01,222.00
             275.44,218.62 295.60,216.14 303.00,214.92
             307.73,214.14 311.91,214.11 315.96,211.20
             315.96,211.20 343.00,183.04 343.00,183.04
             353.77,172.76 368.77,164.96 383.00,160.72
             416.43,150.76 457.43,153.39 488.00,170.87
             511.02,184.03 529.70,206.00 540.69,230.00
             551.59,253.79 554.30,280.16 554.00,306.00
             553.58,342.01 536.85,386.38 510.00,410.83
             503.34,416.89 492.05,424.98 484.00,429.03
             451.03,445.62 403.06,447.04 370.00,430.24
             359.93,425.13 344.51,415.06 338.00,406.00
             349.70,407.44 360.53,402.36 363.47,390.00
             363.47,390.00 364.00,373.00 364.00,373.00
             374.95,372.75 381.45,367.98 386.00,358.00
             386.00,358.00 409.00,369.94 409.00,369.94 Z
           M 336.00,366.45
           C 338.61,365.15 341.17,364.88 344.00,365.53
             356.78,368.47 357.83,385.22 350.61,393.96
             346.27,399.21 338.63,401.23 333.64,395.66
             331.96,393.79 330.99,391.27 330.00,389.00
             328.40,392.27 326.85,396.06 323.82,398.28
             316.91,403.31 310.72,398.91 308.00,392.00
             308.00,392.00 306.00,392.00 306.00,392.00
             303.98,398.84 298.65,404.67 291.09,400.69
             288.25,399.19 285.98,395.55 284.00,393.00
             283.27,395.03 282.62,397.14 281.30,398.89
             277.37,404.14 269.79,404.20 265.21,399.77
             256.52,391.38 256.13,370.86 271.00,369.20
             276.96,368.54 279.93,371.22 284.00,375.00
             290.13,364.16 298.58,367.47 307.00,373.00
             311.55,363.93 323.45,363.93 328.00,373.00
             330.44,370.62 332.92,367.99 336.00,366.45 Z" />
</svg>
